<!DOCTYPE svg PUBLIC "-//W3C//DTD SVG 1.1//EN" "http://www.w3.org/Graphics/SVG/1.1/DTD/svg11.dtd">

<!-- Uploaded to: SVG Repo, www.svgrepo.com, Transformed by: SVG Repo Mixer Tools -->
<svg fill="#ffffff" height="223px" width="223px" version="1.1" id="Capa_1" xmlns="http://www.w3.org/2000/svg" xmlns:xlink="http://www.w3.org/1999/xlink" viewBox="-1.12 -1.12 30.20 30.20" xml:space="preserve" data-darkreader-inline-fill="" style="--darkreader-inline-fill: #17191a; --darkreader-inline-stroke: #dcdbd8;" stroke="#ffffff" data-darkreader-inline-stroke="">

<g id="SVGRepo_bgCarrier" stroke-width="0"/>

<g id="SVGRepo_tracerCarrier" stroke-linecap="round" stroke-linejoin="round"/>

<g id="SVGRepo_iconCarrier"> <g> <g id="c153_no_music"> <path d="M13.981,0C6.258,0,0,6.259,0,13.98s6.258,13.983,13.981,13.983s13.982-6.262,13.982-13.983S21.705,0,13.981,0z M13.981,1.432c6.933,0,12.553,5.616,12.553,12.549c0,2.807-0.936,5.391-2.492,7.479l-3.938-3.204V6.472L10.99,7.949v2.898 l-6.383-5.19C6.904,3.07,10.247,1.432,13.981,1.432z M12.223,11.851l0.002-0.682L18.9,9.947v7.333L12.223,11.851z M1.432,13.98 c0-2.417,0.694-4.669,1.881-6.584l7.677,6.243v5.267c-0.478-0.168-1.045-0.196-1.628-0.052c-1.291,0.323-2.138,1.391-1.889,2.38 c0.143,0.917,1.497,1.533,2.785,1.211c1.137-0.285,1.93-1.144,1.933-2.019h0.002l0.02-5.793l3.954,3.216 c-0.651,0.491-1.003,1.203-0.831,1.887c0.25,1.002,1.51,1.55,2.816,1.225c0.455-0.117,0.845-0.307,1.155-0.557l3.297,2.681 c-2.247,2.132-5.278,3.448-8.622,3.448C7.05,26.533,1.432,20.911,1.432,13.98z"/> </g> <g id="Capa_1_53_"> </g> </g> </g>

</svg>