<!DOCTYPE svg PUBLIC "-//W3C//DTD SVG 1.1//EN" "http://www.w3.org/Graphics/SVG/1.1/DTD/svg11.dtd">
<!-- Uploaded to: SVG Repo, www.svgrepo.com, Transformed by: SVG Repo Mixer Tools -->
<svg width="800px" height="800px" viewBox="0 0 24 24" fill="none" xmlns="http://www.w3.org/2000/svg" stroke="#faf4f4" data-darkreader-inline-stroke="" style="--darkreader-inline-stroke: #e0c9c9;">
<g id="SVGRepo_bgCarrier" stroke-width="0"/>
<g id="SVGRepo_tracerCarrier" stroke-linecap="round" stroke-linejoin="round"/>
<g id="SVGRepo_iconCarrier"> <path fill-rule="evenodd" clip-rule="evenodd" d="M8 6C8 3.79086 9.79086 2 12 2C14.2091 2 16 3.79086 16 6V6.23077C16 6.78305 15.5523 7.23077 15 7.23077C14.4477 7.23077 14 6.78305 14 6.23077V6C14 4.89543 13.1046 4 12 4C10.8954 4 10 4.89543 10 6V9C10 9.55228 9.55228 10 9 10C8.44772 10 8 9.55228 8 9V6Z" fill="#f2f2f2" data-darkreader-inline-fill="" style="--darkreader-inline-fill: #1d2021;"/> <path fill-rule="evenodd" clip-rule="evenodd" d="M12 8C8.13401 8 5 11.134 5 15C5 18.866 8.13401 22 12 22C15.866 22 19 18.866 19 15C19 11.134 15.866 8 12 8ZM12 13C12.5523 13 13 13.4477 13 14V16C13 16.5523 12.5523 17 12 17C11.4477 17 11 16.5523 11 16V14C11 13.4477 11.4477 13 12 13Z" fill="#f2f2f2" data-darkreader-inline-fill="" style="--darkreader-inline-fill: #1d2021;"/> </g>
</svg>